<svg width="500" height="500" viewBox="0 0 500 500" fill="none" xmlns="http://www.w3.org/2000/svg">
<g id="Logo_1_2">
<path id="D" d="M250 500C282.83 500 315.339 493.534 345.671 480.97C376.002 468.406 403.562 449.991 426.777 426.777C449.991 403.562 468.406 376.002 480.97 345.671C493.534 315.339 500 282.83 500 250C500 217.17 493.534 184.661 480.97 154.329C468.406 123.998 449.991 96.4379 426.777 73.2233C403.562 50.0086 376.002 31.5938 345.671 19.0301C315.339 6.46644 282.83 -2.87013e-06 250 0L250 77.5C272.653 77.5 295.084 81.9618 316.013 90.6308C336.942 99.2997 355.958 112.006 371.976 128.024C387.994 144.042 400.7 163.058 409.369 183.987C418.038 204.916 422.5 227.347 422.5 250C422.5 272.653 418.038 295.084 409.369 316.013C400.7 336.942 387.994 355.958 371.976 371.976C355.958 387.994 336.942 400.7 316.013 409.369C295.084 418.038 272.653 422.5 250 422.5L250 500Z" fill="#F0F0F0"/>
<path id="O" d="M176 400C156.302 400 136.796 396.12 118.597 388.582C100.399 381.044 83.8628 369.995 69.934 356.066C56.0052 342.137 44.9563 325.601 37.4181 307.402C29.8799 289.204 26 269.698 26 250C26 230.302 29.8799 210.796 37.4181 192.597C44.9563 174.399 56.0052 157.863 69.934 143.934C83.8628 130.005 100.399 118.956 118.598 111.418C136.796 103.88 156.302 100 176 100L176 146.5C162.408 146.5 148.949 149.177 136.392 154.378C123.835 159.58 112.425 167.204 102.814 176.814C93.2036 186.425 85.5798 197.835 80.3785 210.392C75.1771 222.949 72.5 236.408 72.5 250C72.5 263.592 75.1771 277.051 80.3785 289.608C85.5798 302.165 93.2036 313.575 102.814 323.186C112.425 332.796 123.835 340.42 136.392 345.622C148.949 350.823 162.408 353.5 176 353.5V400Z" fill="#F0F0F0"/>
<rect id="T" x="26" width="177" height="78" fill="#F0F0F0"/>
<rect id="Mid" x="176" width="80" height="500" fill="#F0F0F0"/>
<circle id="Dot" cx="339" cy="250" r="50" fill="#CC00FF"/>
</g>
</svg>
