<svg width="500" height="500" viewBox="0 0 500 500" fill="none" xmlns="http://www.w3.org/2000/svg">
<g id="Loading">
<circle id="Dot" cx="250" cy="250" r="50" fill="#4B0082"/>
<path id="D" d="M250 500C282.83 500 315.339 493.534 345.671 480.97C376.002 468.406 403.562 449.991 426.777 426.777C449.991 403.562 468.406 376.002 480.97 345.671C493.534 315.339 500 282.83 500 250C500 217.17 493.534 184.661 480.97 154.329C468.406 123.998 449.991 96.4379 426.777 73.2233C403.562 50.0086 376.002 31.5938 345.671 19.0301C315.339 6.46644 282.83 -2.87013e-06 250 0L250 87.5C271.34 87.5 292.471 91.7032 312.186 99.8696C331.901 108.036 349.815 120.006 364.905 135.095C379.994 150.185 391.964 168.099 400.13 187.814C408.297 207.529 412.5 228.66 412.5 250C412.5 271.34 408.297 292.471 400.13 312.186C391.964 331.901 379.994 349.815 364.905 364.905C349.815 379.994 331.901 391.964 312.186 400.13C292.471 408.297 271.34 412.5 250 412.5V500Z" fill="#D9D9D9"/>
<path id="o" d="M250 100C230.302 100 210.796 103.88 192.597 111.418C174.399 118.957 157.863 130.005 143.934 143.934C130.005 157.863 118.956 174.399 111.418 192.598C103.88 210.797 100 230.302 100 250C100 269.699 103.88 289.204 111.418 307.403C118.956 325.602 130.005 342.137 143.934 356.066C157.863 369.995 174.399 381.044 192.597 388.582C210.796 396.12 230.302 400 250 400L250 347.5C237.196 347.5 224.518 344.978 212.688 340.079C200.859 335.179 190.111 327.997 181.057 318.943C172.003 309.889 164.822 299.141 159.922 287.312C155.022 275.483 152.5 262.804 152.5 250C152.5 237.196 155.022 224.518 159.922 212.689C164.822 200.859 172.003 190.111 181.057 181.057C190.111 172.004 200.859 164.822 212.688 159.922C224.518 155.022 237.196 152.5 250 152.5V100Z" fill="#D9D9D9"/>
</g>
</svg>
